<svg id="Layer_1" data-name="Layer 1" xmlns="http://www.w3.org/2000/svg" viewBox="0 0 431.4 217.98396"><defs><style>.cls-1,.cls-10,.cls-11,.cls-12,.cls-13,.cls-14,.cls-15,.cls-3,.cls-4,.cls-5,.cls-6,.cls-7,.cls-8,.cls-9{fill:none;}.cls-1,.cls-10,.cls-11,.cls-12,.cls-13,.cls-14,.cls-16,.cls-3,.cls-4,.cls-5,.cls-6,.cls-7,.cls-8,.cls-9{stroke:#fff;}.cls-1,.cls-10,.cls-11,.cls-12,.cls-13,.cls-14,.cls-3,.cls-4,.cls-5,.cls-6,.cls-7,.cls-8,.cls-9{stroke-miterlimit:10;}.cls-1{stroke-width:0.50655px;}.cls-16,.cls-2{fill:#fff;}.cls-3{stroke-width:0.35677px;}.cls-4{stroke-width:0.52755px;}.cls-5{stroke-width:0.55294px;}.cls-6{stroke-width:0.5798px;}.cls-7{stroke-width:0.54859px;}.cls-8{stroke-width:0.45118px;}.cls-9{stroke-width:0.49678px;}.cls-10{stroke-width:0.45772px;}.cls-11{stroke-width:0.45945px;}.cls-12{stroke-width:0.42451px;}.cls-13{stroke-width:0.51867px;}.cls-14{stroke-width:0.53022px;}.cls-16{stroke-linecap:round;stroke-linejoin:round;stroke-width:3.94288px;}</style></defs><polyline class="cls-1" points="96.953 99.276 84.808 99.276 84.808 94.615"/><circle class="cls-2" cx="84.84883" cy="94.08342" r="0.89906"/><circle class="cls-2" cx="83.59903" cy="109.70596" r="0.89906"/><circle class="cls-2" cx="131.25749" cy="94.08342" r="0.89906"/><circle class="cls-2" cx="116.19736" cy="89.89658" r="0.89906"/><circle class="cls-2" cx="131.25749" cy="123.88086" r="0.89906"/><circle class="cls-2" cx="92.72632" cy="89.11718" r="0.89906"/><circle class="cls-2" cx="107.88191" cy="81.49657" r="0.89906"/><polyline class="cls-3" points="84.753 96.585 92.716 91.618 92.716 85.111"/><line class="cls-4" x1="107.96259" y1="92.19501" x2="107.96259" y2="77.04091"/><polyline class="cls-5" points="117.665 99.239 131.418 99.239 131.418 94.958"/><polyline class="cls-6" points="114.91 119.018 131.418 119.018 131.418 123.069"/><circle class="cls-2" cx="84.7101" cy="123.88086" r="0.89906"/><circle class="cls-2" cx="96.64572" cy="128.6926" r="0.89906"/><circle class="cls-2" cx="111.51838" cy="130.75477" r="0.89906"/><circle class="cls-2" cx="128.89064" cy="106.07116" r="0.89906"/><circle class="cls-2" cx="123.14155" cy="127.31782" r="0.89906"/><polyline class="cls-7" points="99.327 119.018 84.548 119.018 84.548 123.068"/><polyline class="cls-3" points="128.85 99.367 128.85 108.872 135.978 116"/><polyline class="cls-3" points="131.418 97.051 121.4 90.891 121.4 83.955"/><polyline class="cls-8" points="107.963 86.134 116.263 86.134 116.263 98.466"/><polyline class="cls-9" points="98.539 97.611 98.539 86.124 106.359 77.658"/><polyline class="cls-3" points="90.062 93.202 90.062 95.9 98.41 90.762"/><polyline class="cls-3" points="87.322 99.325 87.322 105.886 79.728 113.479"/><polyline class="cls-10" points="83.64 109.6 83.64 114.48 95.338 114.48"/><line class="cls-11" x1="133.38781" y1="113.36709" x2="119.75561" y2="113.36709"/><line class="cls-3" x1="128.93532" y1="103.77711" x2="136.1278" y2="103.77711"/><polyline class="cls-12" points="116.948 118.703 116.948 129.25 120.758 134.645"/><polyline class="cls-3" points="117.205 127.238 123.284 127.238 124.997 127.238 124.997 119.19"/><polyline class="cls-3" points="123.113 127.238 123.113 130.15 127.308 130.15"/><polyline class="cls-3" points="96.74 123.985 96.74 128.608 92.416 132.932"/><line class="cls-13" x1="107.96259" y1="123.54891" x2="107.96259" y2="141.60116"/><polyline class="cls-14" points="107.963 140.366 111.542 140.366 111.542 135.208 111.542 122.029"/><polyline class="cls-3" points="107.963 132.635 99.139 132.635 99.139 130.88 99.138 123.985 96.655 123.985 94.343 123.985 88.349 123.985 88.349 119.19"/><line class="cls-3" x1="80.00951" y1="103.09211" x2="87.26369" y2="103.09211"/><polygon class="cls-2" points="107.774 92.596 94.657 100.466 107.811 107.869 120.42 100.475 107.774 92.596"/><polygon class="cls-2" points="107.497 108.47 93.95 101.021 93.899 116.694 107.367 123.898 107.497 108.47"/><polygon class="cls-2" points="108.241 108.679 120.831 101.473 120.831 116.784 108.261 123.891 108.241 108.679"/><polygon class="cls-2" points="65.836 85.434 80.232 93.074 107.837 77.041 135.641 93.089 150.044 85.442 108.124 60.917 65.836 85.434"/><polygon class="cls-2" points="66.063 85.315 80.459 92.955 80.339 124.956 107.627 140.743 107.621 157.059 65.991 133.277 66.063 85.315"/><polygon class="cls-2" points="149.787 85.315 135.39 92.955 135.372 125.021 107.492 140.851 107.486 157.167 149.325 133.277 149.787 85.315"/><polygon class="cls-15" points="108.066 60.76 66.16 85.469 66.16 133.701 107.276 157.224 149.577 133.108 149.577 85.074 108.066 60.76"/><path class="cls-16" d="M188.30656,130.12412a23.6877,23.6877,0,0,1-8.76567-1.59481,20.93113,20.93113,0,0,1-6.99409-4.45585,20.54123,20.54123,0,0,1-4.6038-6.7001,22.08179,22.08179,0,0,1,0-16.76276,20.58194,20.58194,0,0,1,4.6038-6.70011,21.02876,21.02876,0,0,1,6.96527-4.45585,25.02937,25.02937,0,0,1,17.5006-.03074,21.043,21.043,0,0,1,6.96526,4.427,20.00778,20.00778,0,0,1,4.60381,6.70011,22.75336,22.75336,0,0,1,0,16.88188,19.98864,19.98864,0,0,1-4.60381,6.70011,21.043,21.043,0,0,1-6.96526,4.427A23.60832,23.60832,0,0,1,188.30656,130.12412Zm0-5.25325a16.77229,16.77229,0,0,0,6.34656-1.1817,15.07653,15.07653,0,0,0,5.07456-3.33372,15.53444,15.53444,0,0,0,3.36446-5.04765,17.08148,17.08148,0,0,0,0-12.63164,15.55486,15.55486,0,0,0-3.36446-5.04765,15.1055,15.1055,0,0,0-5.07456-3.33373,17.78854,17.78854,0,0,0-12.75076,0,15.32028,15.32028,0,0,0-8.50051,8.38138,17.10682,17.10682,0,0,0,0,12.63164,15.32023,15.32023,0,0,0,8.50051,8.38137A16.92219,16.92219,0,0,0,188.30656,124.87087Zm30.93155,4.78057V88.33251h16.11331a22.65473,22.65473,0,0,1,9.26717,1.712,13.13022,13.13022,0,0,1,5.9027,4.95735,14.10326,14.10326,0,0,1,2.06557,7.73385,13.94759,13.94759,0,0,1-2.06557,7.7031,13.19416,13.19416,0,0,1-5.9027,4.92853,22.65473,22.65473,0,0,1-9.26717,1.712h-10.2106l-1.82612-.00795.08743,12.58Zm3.24534-17.5909h12.6912q5.66635,0,8.58889-2.44793a8.478,8.478,0,0,0,2.92061-6.87688,8.39312,8.39312,0,0,0-2.92061-6.84806q-2.92253-2.41815-8.58889-2.41911h-12.6912Zm24.3794,17.5909-10.50843-14.9931h6.31582l10.62563,14.9931Zm15.28708,0V88.33251h5.9027v41.31893Zm36.94954.47268a23.6877,23.6877,0,0,1-8.76567-1.59481,20.93113,20.93113,0,0,1-6.99409-4.45585,20.54123,20.54123,0,0,1-4.6038-6.7001,22.08179,22.08179,0,0,1,0-16.76276,20.58194,20.58194,0,0,1,4.6038-6.70011,21.02876,21.02876,0,0,1,6.96527-4.45585,25.02937,25.02937,0,0,1,17.5006-.03074,21.043,21.043,0,0,1,6.96526,4.427,20.00778,20.00778,0,0,1,4.60381,6.70011,22.75336,22.75336,0,0,1,0,16.88188,19.98864,19.98864,0,0,1-4.60381,6.70011,21.043,21.043,0,0,1-6.96526,4.427A23.60832,23.60832,0,0,1,299.09947,130.12412Zm0-5.25325a16.77229,16.77229,0,0,0,6.34656-1.1817,15.07653,15.07653,0,0,0,5.07456-3.33372,15.53444,15.53444,0,0,0,3.36446-5.04765,17.08148,17.08148,0,0,0,0-12.63164,15.55486,15.55486,0,0,0-3.36446-5.04765,15.1055,15.1055,0,0,0-5.07456-3.33373,17.78854,17.78854,0,0,0-12.75076,0,15.32028,15.32028,0,0,0-8.50051,8.38138,17.10682,17.10682,0,0,0,0,12.63164,15.32023,15.32023,0,0,0,8.50051,8.38137A16.92219,16.92219,0,0,0,299.09947,124.87087Zm30.93155,4.78057V88.33251h4.84014L362.2,122.27306h-2.53824V88.33251h5.90271v41.31893h-4.84014L334.99469,95.71089h0l.08841,33.94055Z"/></svg>